# Blender v2.81 (sub 16) OBJ File: ''
# www.blender.org
mtllib Faixa.mtl
o Cylinder
v 0.000000 -0.050000 -0.200000
v 0.000000 0.050000 -0.200000
v 0.012814 -0.050000 -0.199589
v 0.012814 0.050000 -0.199589
v 0.025575 -0.050000 -0.198358
v 0.025575 0.050000 -0.198358
v 0.038232 -0.050000 -0.196312
v 0.038232 0.050000 -0.196312
v 0.050731 -0.050000 -0.193459
v 0.050731 0.050000 -0.193459
v 0.063022 -0.050000 -0.189811
v 0.063022 0.050000 -0.189811
v 0.075053 -0.050000 -0.185383
v 0.075053 0.050000 -0.185383
v 0.086777 -0.050000 -0.180194
v 0.086777 0.050000 -0.180194
v 0.098144 -0.050000 -0.174264
v 0.098144 0.050000 -0.174264
v 0.109107 -0.050000 -0.167618
v 0.109107 0.050000 -0.167618
v 0.119622 -0.050000 -0.160283
v 0.119622 0.050000 -0.160283
v 0.129646 -0.050000 -0.152289
v 0.129646 0.050000 -0.152289
v 0.139137 -0.050000 -0.143670
v 0.139137 0.050000 -0.143670
v 0.148056 -0.050000 -0.134460
v 0.148056 0.050000 -0.134460
v 0.156366 -0.050000 -0.124698
v 0.156366 0.050000 -0.124698
v 0.164034 -0.050000 -0.114423
v 0.164034 0.050000 -0.114423
v 0.171029 -0.050000 -0.103678
v 0.171029 0.050000 -0.103678
v 0.177320 -0.050000 -0.092508
v 0.177320 0.050000 -0.092508
v 0.182883 -0.050000 -0.080957
v 0.182883 0.050000 -0.080957
v 0.187694 -0.050000 -0.069073
v 0.187694 0.050000 -0.069073
v 0.191734 -0.050000 -0.056906
v 0.191734 0.050000 -0.056906
v 0.194986 -0.050000 -0.044504
v 0.194986 0.050000 -0.044504
v 0.197436 -0.050000 -0.031920
v 0.197436 0.050000 -0.031920
v 0.199076 -0.050000 -0.019205
v 0.199076 0.050000 -0.019205
v 0.199897 -0.050000 -0.006410
v 0.199897 0.050000 -0.006410
v 0.199897 -0.050000 0.006410
v 0.199897 0.050000 0.006410
v 0.199076 -0.050000 0.019205
v 0.199076 0.050000 0.019205
v 0.197436 -0.050000 0.031920
v 0.197436 0.050000 0.031920
v 0.194986 -0.050000 0.044504
v 0.194986 0.050000 0.044504
v 0.191734 -0.050000 0.056905
v 0.191734 0.050000 0.056905
v 0.187694 -0.050000 0.069073
v 0.187694 0.050000 0.069073
v 0.182883 -0.050000 0.080957
v 0.182883 0.050000 0.080957
v 0.177320 -0.050000 0.092508
v 0.177320 0.050000 0.092508
v 0.171029 -0.050000 0.103678
v 0.171029 0.050000 0.103678
v 0.164035 -0.050000 0.114423
v 0.164035 0.050000 0.114423
v 0.156366 -0.050000 0.124698
v 0.156366 0.050000 0.124698
v 0.148056 -0.050000 0.134460
v 0.148056 0.050000 0.134460
v 0.139137 -0.050000 0.143670
v 0.139137 0.050000 0.143670
v 0.129646 -0.050000 0.152289
v 0.129646 0.050000 0.152289
v 0.119622 -0.050000 0.160283
v 0.119622 0.050000 0.160283
v 0.109107 -0.050000 0.167618
v 0.109107 0.050000 0.167618
v 0.098144 -0.050000 0.174264
v 0.098144 0.050000 0.174264
v 0.086777 -0.050000 0.180194
v 0.086777 0.050000 0.180194
v 0.075054 -0.050000 0.185383
v 0.075054 0.050000 0.185383
v 0.063022 -0.050000 0.189811
v 0.063022 0.050000 0.189811
v 0.050731 -0.050000 0.193459
v 0.050731 0.050000 0.193459
v 0.038232 -0.050000 0.196312
v 0.038232 0.050000 0.196312
v 0.025576 -0.050000 0.198358
v 0.025576 0.050000 0.198358
v 0.012814 -0.050000 0.199589
v 0.012814 0.050000 0.199589
v 0.000000 -0.050000 0.200000
v 0.000000 0.050000 0.200000
v -0.012814 -0.050000 0.199589
v -0.012814 0.050000 0.199589
v -0.025575 -0.050000 0.198358
v -0.025575 0.050000 0.198358
v -0.038231 -0.050000 0.196312
v -0.038231 0.050000 0.196312
v -0.050731 -0.050000 0.193459
v -0.050731 0.050000 0.193459
v -0.063021 -0.050000 0.189811
v -0.063021 0.050000 0.189811
v -0.075053 -0.050000 0.185383
v -0.075053 0.050000 0.185383
v -0.086776 -0.050000 0.180194
v -0.086776 0.050000 0.180194
v -0.098143 -0.050000 0.174264
v -0.098143 0.050000 0.174264
v -0.109107 -0.050000 0.167618
v -0.109107 0.050000 0.167618
v -0.119622 -0.050000 0.160283
v -0.119622 0.050000 0.160283
v -0.129645 -0.050000 0.152289
v -0.129645 0.050000 0.152289
v -0.139136 -0.050000 0.143670
v -0.139136 0.050000 0.143670
v -0.148055 -0.050000 0.134460
v -0.148055 0.050000 0.134460
v -0.156366 -0.050000 0.124698
v -0.156366 0.050000 0.124698
v -0.164034 -0.050000 0.114424
v -0.164034 0.050000 0.114424
v -0.171028 -0.050000 0.103679
v -0.171028 0.050000 0.103679
v -0.177320 -0.050000 0.092508
v -0.177320 0.050000 0.092508
v -0.182882 -0.050000 0.080957
v -0.182882 0.050000 0.080957
v -0.187694 -0.050000 0.069073
v -0.187694 0.050000 0.069073
v -0.191733 -0.050000 0.056906
v -0.191733 0.050000 0.056906
v -0.194985 -0.050000 0.044505
v -0.194985 0.050000 0.044505
v -0.197436 -0.050000 0.031920
v -0.197436 0.050000 0.031920
v -0.199076 -0.050000 0.019205
v -0.199076 0.050000 0.019205
v -0.199897 -0.050000 0.006411
v -0.199897 0.050000 0.006411
v -0.199897 -0.050000 -0.006410
v -0.199897 0.050000 -0.006410
v -0.199076 -0.050000 -0.019204
v -0.199076 0.050000 -0.019204
v -0.197436 -0.050000 -0.031920
v -0.197436 0.050000 -0.031920
v -0.194986 -0.050000 -0.044504
v -0.194986 0.050000 -0.044504
v -0.191734 -0.050000 -0.056905
v -0.191734 0.050000 -0.056905
v -0.187694 -0.050000 -0.069073
v -0.187694 0.050000 -0.069073
v -0.182883 -0.050000 -0.080956
v -0.182883 0.050000 -0.080956
v -0.177320 -0.050000 -0.092507
v -0.177320 0.050000 -0.092507
v -0.171029 -0.050000 -0.103678
v -0.171029 0.050000 -0.103678
v -0.164035 -0.050000 -0.114423
v -0.164035 0.050000 -0.114423
v -0.156367 -0.050000 -0.124698
v -0.156367 0.050000 -0.124698
v -0.148056 -0.050000 -0.134460
v -0.148056 0.050000 -0.134460
v -0.139137 -0.050000 -0.143670
v -0.139137 0.050000 -0.143670
v -0.129646 -0.050000 -0.152289
v -0.129646 0.050000 -0.152289
v -0.119623 -0.050000 -0.160282
v -0.119623 0.050000 -0.160282
v -0.109107 -0.050000 -0.167617
v -0.109107 0.050000 -0.167617
v -0.098144 -0.050000 -0.174263
v -0.098144 0.050000 -0.174263
v -0.086777 -0.050000 -0.180194
v -0.086777 0.050000 -0.180194
v -0.075054 -0.050000 -0.185383
v -0.075054 0.050000 -0.185383
v -0.063022 -0.050000 -0.189811
v -0.063022 0.050000 -0.189811
v -0.050731 -0.050000 -0.193459
v -0.050731 0.050000 -0.193459
v -0.038232 -0.050000 -0.196312
v -0.038232 0.050000 -0.196312
v -0.025576 -0.050000 -0.198358
v -0.025576 0.050000 -0.198358
v -0.012815 -0.050000 -0.199589
v -0.012815 0.050000 -0.199589
vt 1.000000 0.000000
vt 1.000000 1.000000
vt 0.989796 1.000000
vt 0.989796 0.000000
vt 0.979592 1.000000
vt 0.979592 0.000000
vt 0.969388 1.000000
vt 0.969388 0.000000
vt 0.959184 1.000000
vt 0.959184 0.000000
vt 0.948980 1.000000
vt 0.948980 0.000000
vt 0.938776 1.000000
vt 0.938776 0.000000
vt 0.928571 1.000000
vt 0.928571 0.000000
vt 0.918367 1.000000
vt 0.918367 0.000000
vt 0.908163 1.000000
vt 0.908163 0.000000
vt 0.897959 1.000000
vt 0.897959 0.000000
vt 0.887755 1.000000
vt 0.887755 0.000000
vt 0.877551 1.000000
vt 0.877551 0.000000
vt 0.867347 1.000000
vt 0.867347 0.000000
vt 0.857143 1.000000
vt 0.857143 0.000000
vt 0.846939 1.000000
vt 0.846939 0.000000
vt 0.836735 1.000000
vt 0.836735 0.000000
vt 0.826531 1.000000
vt 0.826531 0.000000
vt 0.816327 1.000000
vt 0.816327 0.000000
vt 0.806123 1.000000
vt 0.806123 0.000000
vt 0.795918 1.000000
vt 0.795918 0.000000
vt 0.785714 1.000000
vt 0.785714 0.000000
vt 0.775510 1.000000
vt 0.775510 0.000000
vt 0.765306 1.000000
vt 0.765306 0.000000
vt 0.755102 1.000000
vt 0.755102 0.000000
vt 0.744898 1.000000
vt 0.744898 0.000000
vt 0.734694 1.000000
vt 0.734694 0.000000
vt 0.724490 1.000000
vt 0.724490 0.000000
vt 0.714286 1.000000
vt 0.714286 0.000000
vt 0.704082 1.000000
vt 0.704082 0.000000
vt 0.693878 1.000000
vt 0.693878 0.000000
vt 0.683674 1.000000
vt 0.683674 0.000000
vt 0.673470 1.000000
vt 0.673470 0.000000
vt 0.663265 1.000000
vt 0.663265 0.000000
vt 0.653061 1.000000
vt 0.653061 0.000000
vt 0.642857 1.000000
vt 0.642857 0.000000
vt 0.632653 1.000000
vt 0.632653 0.000000
vt 0.622449 1.000000
vt 0.622449 0.000000
vt 0.612245 1.000000
vt 0.612245 0.000000
vt 0.602041 1.000000
vt 0.602041 0.000000
vt 0.591837 1.000000
vt 0.591837 0.000000
vt 0.581633 1.000000
vt 0.581633 0.000000
vt 0.571429 1.000000
vt 0.571429 0.000000
vt 0.561225 1.000000
vt 0.561225 0.000000
vt 0.551021 1.000000
vt 0.551021 0.000000
vt 0.540817 1.000000
vt 0.540817 0.000000
vt 0.530612 1.000000
vt 0.530612 0.000000
vt 0.520408 1.000000
vt 0.520408 0.000000
vt 0.510204 1.000000
vt 0.510204 0.000000
vt 0.500000 1.000000
vt 0.500000 0.000000
vt 0.489796 1.000000
vt 0.489796 0.000000
vt 0.479592 1.000000
vt 0.479592 0.000000
vt 0.469388 1.000000
vt 0.469388 0.000000
vt 0.459184 1.000000
vt 0.459184 0.000000
vt 0.448980 1.000000
vt 0.448980 0.000000
vt 0.438776 1.000000
vt 0.438776 0.000000
vt 0.428572 1.000000
vt 0.428572 0.000000
vt 0.418368 1.000000
vt 0.418368 0.000000
vt 0.408164 1.000000
vt 0.408164 0.000000
vt 0.397959 1.000000
vt 0.397959 0.000000
vt 0.387755 1.000000
vt 0.387755 0.000000
vt 0.377551 1.000000
vt 0.377551 0.000000
vt 0.367347 1.000000
vt 0.367347 0.000000
vt 0.357143 1.000000
vt 0.357143 0.000000
vt 0.346939 1.000000
vt 0.346939 0.000000
vt 0.336735 1.000000
vt 0.336735 0.000000
vt 0.326531 1.000000
vt 0.326531 0.000000
vt 0.316327 1.000000
vt 0.316327 0.000000
vt 0.306123 1.000000
vt 0.306123 0.000000
vt 0.295919 1.000000
vt 0.295919 0.000000
vt 0.285715 1.000000
vt 0.285715 0.000000
vt 0.275511 1.000000
vt 0.275511 0.000000
vt 0.265306 1.000000
vt 0.265306 0.000000
vt 0.255102 1.000000
vt 0.255102 0.000000
vt 0.244898 1.000000
vt 0.244898 0.000000
vt 0.234694 1.000000
vt 0.234694 0.000000
vt 0.224490 1.000000
vt 0.224490 0.000000
vt 0.214286 1.000000
vt 0.214286 0.000000
vt 0.204082 1.000000
vt 0.204082 0.000000
vt 0.193878 1.000000
vt 0.193878 0.000000
vt 0.183674 1.000000
vt 0.183674 0.000000
vt 0.173470 1.000000
vt 0.173470 0.000000
vt 0.163266 1.000000
vt 0.163266 0.000000
vt 0.153062 1.000000
vt 0.153062 0.000000
vt 0.142858 1.000000
vt 0.142858 0.000000
vt 0.132653 1.000000
vt 0.132653 0.000000
vt 0.122449 1.000000
vt 0.122449 0.000000
vt 0.112245 1.000000
vt 0.112245 0.000000
vt 0.102041 1.000000
vt 0.102041 0.000000
vt 0.091837 1.000000
vt 0.091837 0.000000
vt 0.081633 1.000000
vt 0.081633 0.000000
vt 0.071429 1.000000
vt 0.071429 0.000000
vt 0.061225 1.000000
vt 0.061225 0.000000
vt 0.051021 1.000000
vt 0.051021 0.000000
vt 0.040817 1.000000
vt 0.040817 0.000000
vt 0.030613 1.000000
vt 0.030613 0.000000
vt 0.020409 1.000000
vt 0.020409 0.000000
vt 0.010204 1.000000
vt 0.010204 0.000000
vt 0.000000 1.000000
vt 0.000000 0.000000
vn 0.0321 0.0000 -0.9995
vn 0.0960 0.0000 -0.9954
vn 0.1596 0.0000 -0.9872
vn 0.2225 0.0000 -0.9749
vn 0.2845 0.0000 -0.9587
vn 0.3454 0.0000 -0.9385
vn 0.4048 0.0000 -0.9144
vn 0.4625 0.0000 -0.8866
vn 0.5184 0.0000 -0.8551
vn 0.5721 0.0000 -0.8202
vn 0.6235 0.0000 -0.7818
vn 0.6723 0.0000 -0.7403
vn 0.7183 0.0000 -0.6957
vn 0.7614 0.0000 -0.6482
vn 0.8014 0.0000 -0.5981
vn 0.8381 0.0000 -0.5455
vn 0.8713 0.0000 -0.4907
vn 0.9010 0.0000 -0.4339
vn 0.9269 0.0000 -0.3753
vn 0.9491 0.0000 -0.3151
vn 0.9673 0.0000 -0.2537
vn 0.9816 0.0000 -0.1912
vn 0.9918 0.0000 -0.1279
vn 0.9979 0.0000 -0.0641
vn 1.0000 0.0000 0.0000
vn 0.9979 0.0000 0.0641
vn 0.9918 0.0000 0.1279
vn 0.9816 0.0000 0.1912
vn 0.9673 0.0000 0.2537
vn 0.9491 0.0000 0.3151
vn 0.9269 0.0000 0.3753
vn 0.9010 0.0000 0.4339
vn 0.8713 0.0000 0.4907
vn 0.8381 0.0000 0.5455
vn 0.8014 0.0000 0.5981
vn 0.7614 0.0000 0.6482
vn 0.7183 0.0000 0.6957
vn 0.6723 0.0000 0.7403
vn 0.6235 0.0000 0.7818
vn 0.5721 0.0000 0.8202
vn 0.5184 0.0000 0.8551
vn 0.4625 0.0000 0.8866
vn 0.4048 0.0000 0.9144
vn 0.3454 0.0000 0.9385
vn 0.2845 0.0000 0.9587
vn 0.2225 0.0000 0.9749
vn 0.1596 0.0000 0.9872
vn 0.0960 0.0000 0.9954
vn 0.0321 0.0000 0.9995
vn -0.0320 0.0000 0.9995
vn -0.0960 0.0000 0.9954
vn -0.1596 0.0000 0.9872
vn -0.2225 0.0000 0.9749
vn -0.2845 0.0000 0.9587
vn -0.3454 0.0000 0.9385
vn -0.4048 0.0000 0.9144
vn -0.4625 0.0000 0.8866
vn -0.5184 0.0000 0.8551
vn -0.5721 0.0000 0.8202
vn -0.6235 0.0000 0.7818
vn -0.6723 0.0000 0.7403
vn -0.7183 0.0000 0.6957
vn -0.7614 0.0000 0.6482
vn -0.8014 0.0000 0.5981
vn -0.8381 0.0000 0.5455
vn -0.8713 0.0000 0.4907
vn -0.9010 0.0000 0.4339
vn -0.9269 0.0000 0.3753
vn -0.9491 0.0000 0.3151
vn -0.9673 0.0000 0.2537
vn -0.9816 0.0000 0.1912
vn -0.9918 0.0000 0.1279
vn -0.9979 0.0000 0.0641
vn -1.0000 0.0000 0.0000
vn -0.9979 0.0000 -0.0641
vn -0.9918 0.0000 -0.1279
vn -0.9816 0.0000 -0.1912
vn -0.9673 0.0000 -0.2537
vn -0.9491 0.0000 -0.3151
vn -0.9269 0.0000 -0.3753
vn -0.9010 0.0000 -0.4339
vn -0.8713 0.0000 -0.4907
vn -0.8381 0.0000 -0.5455
vn -0.8014 0.0000 -0.5981
vn -0.7614 0.0000 -0.6482
vn -0.7184 0.0000 -0.6957
vn -0.6723 0.0000 -0.7403
vn -0.6235 0.0000 -0.7818
vn -0.5721 0.0000 -0.8202
vn -0.5184 0.0000 -0.8551
vn -0.4625 0.0000 -0.8866
vn -0.4048 0.0000 -0.9144
vn -0.3454 0.0000 -0.9385
vn -0.2845 0.0000 -0.9587
vn -0.2225 0.0000 -0.9749
vn -0.1596 0.0000 -0.9872
vn -0.0960 0.0000 -0.9954
vn -0.0321 0.0000 -0.9995
usemtl None
s off
f 1/1/1 2/2/1 4/3/1 3/4/1
f 3/4/2 4/3/2 6/5/2 5/6/2
f 5/6/3 6/5/3 8/7/3 7/8/3
f 7/8/4 8/7/4 10/9/4 9/10/4
f 9/10/5 10/9/5 12/11/5 11/12/5
f 11/12/6 12/11/6 14/13/6 13/14/6
f 13/14/7 14/13/7 16/15/7 15/16/7
f 15/16/8 16/15/8 18/17/8 17/18/8
f 17/18/9 18/17/9 20/19/9 19/20/9
f 19/20/10 20/19/10 22/21/10 21/22/10
f 21/22/11 22/21/11 24/23/11 23/24/11
f 23/24/12 24/23/12 26/25/12 25/26/12
f 25/26/13 26/25/13 28/27/13 27/28/13
f 27/28/14 28/27/14 30/29/14 29/30/14
f 29/30/15 30/29/15 32/31/15 31/32/15
f 31/32/16 32/31/16 34/33/16 33/34/16
f 33/34/17 34/33/17 36/35/17 35/36/17
f 35/36/18 36/35/18 38/37/18 37/38/18
f 37/38/19 38/37/19 40/39/19 39/40/19
f 39/40/20 40/39/20 42/41/20 41/42/20
f 41/42/21 42/41/21 44/43/21 43/44/21
f 43/44/22 44/43/22 46/45/22 45/46/22
f 45/46/23 46/45/23 48/47/23 47/48/23
f 47/48/24 48/47/24 50/49/24 49/50/24
f 49/50/25 50/49/25 52/51/25 51/52/25
f 51/52/26 52/51/26 54/53/26 53/54/26
f 53/54/27 54/53/27 56/55/27 55/56/27
f 55/56/28 56/55/28 58/57/28 57/58/28
f 57/58/29 58/57/29 60/59/29 59/60/29
f 59/60/30 60/59/30 62/61/30 61/62/30
f 61/62/31 62/61/31 64/63/31 63/64/31
f 63/64/32 64/63/32 66/65/32 65/66/32
f 65/66/33 66/65/33 68/67/33 67/68/33
f 67/68/34 68/67/34 70/69/34 69/70/34
f 69/70/35 70/69/35 72/71/35 71/72/35
f 71/72/36 72/71/36 74/73/36 73/74/36
f 73/74/37 74/73/37 76/75/37 75/76/37
f 75/76/38 76/75/38 78/77/38 77/78/38
f 77/78/39 78/77/39 80/79/39 79/80/39
f 79/80/40 80/79/40 82/81/40 81/82/40
f 81/82/41 82/81/41 84/83/41 83/84/41
f 83/84/42 84/83/42 86/85/42 85/86/42
f 85/86/43 86/85/43 88/87/43 87/88/43
f 87/88/44 88/87/44 90/89/44 89/90/44
f 89/90/45 90/89/45 92/91/45 91/92/45
f 91/92/46 92/91/46 94/93/46 93/94/46
f 93/94/47 94/93/47 96/95/47 95/96/47
f 95/96/48 96/95/48 98/97/48 97/98/48
f 97/98/49 98/97/49 100/99/49 99/100/49
f 99/100/50 100/99/50 102/101/50 101/102/50
f 101/102/51 102/101/51 104/103/51 103/104/51
f 103/104/52 104/103/52 106/105/52 105/106/52
f 105/106/53 106/105/53 108/107/53 107/108/53
f 107/108/54 108/107/54 110/109/54 109/110/54
f 109/110/55 110/109/55 112/111/55 111/112/55
f 111/112/56 112/111/56 114/113/56 113/114/56
f 113/114/57 114/113/57 116/115/57 115/116/57
f 115/116/58 116/115/58 118/117/58 117/118/58
f 117/118/59 118/117/59 120/119/59 119/120/59
f 119/120/60 120/119/60 122/121/60 121/122/60
f 121/122/61 122/121/61 124/123/61 123/124/61
f 123/124/62 124/123/62 126/125/62 125/126/62
f 125/126/63 126/125/63 128/127/63 127/128/63
f 127/128/64 128/127/64 130/129/64 129/130/64
f 129/130/65 130/129/65 132/131/65 131/132/65
f 131/132/66 132/131/66 134/133/66 133/134/66
f 133/134/67 134/133/67 136/135/67 135/136/67
f 135/136/68 136/135/68 138/137/68 137/138/68
f 137/138/69 138/137/69 140/139/69 139/140/69
f 139/140/70 140/139/70 142/141/70 141/142/70
f 141/142/71 142/141/71 144/143/71 143/144/71
f 143/144/72 144/143/72 146/145/72 145/146/72
f 145/146/73 146/145/73 148/147/73 147/148/73
f 147/148/74 148/147/74 150/149/74 149/150/74
f 149/150/75 150/149/75 152/151/75 151/152/75
f 151/152/76 152/151/76 154/153/76 153/154/76
f 153/154/77 154/153/77 156/155/77 155/156/77
f 155/156/78 156/155/78 158/157/78 157/158/78
f 157/158/79 158/157/79 160/159/79 159/160/79
f 159/160/80 160/159/80 162/161/80 161/162/80
f 161/162/81 162/161/81 164/163/81 163/164/81
f 163/164/82 164/163/82 166/165/82 165/166/82
f 165/166/83 166/165/83 168/167/83 167/168/83
f 167/168/84 168/167/84 170/169/84 169/170/84
f 169/170/85 170/169/85 172/171/85 171/172/85
f 171/172/86 172/171/86 174/173/86 173/174/86
f 173/174/87 174/173/87 176/175/87 175/176/87
f 175/176/88 176/175/88 178/177/88 177/178/88
f 177/178/89 178/177/89 180/179/89 179/180/89
f 179/180/90 180/179/90 182/181/90 181/182/90
f 181/182/91 182/181/91 184/183/91 183/184/91
f 183/184/92 184/183/92 186/185/92 185/186/92
f 185/186/93 186/185/93 188/187/93 187/188/93
f 187/188/94 188/187/94 190/189/94 189/190/94
f 189/190/95 190/189/95 192/191/95 191/192/95
f 191/192/96 192/191/96 194/193/96 193/194/96
f 193/194/97 194/193/97 196/195/97 195/196/97
f 195/196/98 196/195/98 2/197/98 1/198/98
